<svg width="500" height="500" xmlns="http://www.w3.org/2000/svg">

 <g>
  <title>background</title>
  <rect fill="none" id="canvas_background" height="402" width="582" y="-1" x="-1"/>
 </g>
 <g>
  <title>Layer 1</title>
  <path id="svg_1" fill-rule="evenodd" fill="#ffffff" d="m413.543778,122.802l-59.057,0l0,-54.512c0,-20.077 -16.262,-36.34 -36.341,-36.34l-145.367,0c-20.078,0 -36.342,16.264 -36.342,36.34l0,54.513l-59.056,0c-12.536,0 -22.713,10.177 -22.713,22.715c0,12.536 10.177,22.713 22.713,22.713l13.629,0l0,263.48c0,20.078 16.262,36.34 36.341,36.34l236.224,0c20.078,0 36.341,-16.262 36.341,-36.34l0,-263.48l13.629,0c12.535,0 22.715,-10.177 22.715,-22.713c-0.001,-12.539 -10.181,-22.716 -22.716,-22.716zm-104.483,0l-127.198,0l0,-25.435c0,-11.083 8.909,-19.991 19.991,-19.991l87.216,0c11.084,0 19.99,8.909 19.99,19.991l0,25.435l0.001,0zm-127.198,63.599l0,218.051c0,9.992 -8.181,18.172 -18.17,18.172s-18.17,-8.18 -18.17,-18.172l0,-218.051c0,-9.989 8.18,-18.17 18.17,-18.17s18.17,8.181 18.17,18.17zm81.772,0l0,218.051c0,9.992 -8.181,18.172 -18.172,18.172c-9.99,0 -18.17,-8.18 -18.17,-18.172l0,-218.051c0,-9.989 8.181,-18.17 18.17,-18.17c9.991,0 18.172,8.181 18.172,18.17zm81.766,0l0,218.051c0,9.992 -8.181,18.172 -18.169,18.172c-9.99,0 -18.172,-8.18 -18.172,-18.172l0,-218.051c0,-9.989 8.182,-18.17 18.172,-18.17c9.989,0 18.169,8.181 18.169,18.17z" clip-rule="evenodd"/>
 </g>
</svg>